<?xml version="1.0" standalone="no"?>
<!DOCTYPE svg PUBLIC "-//W3C//DTD SVG 20010904//EN"
 "http://www.w3.org/TR/2001/REC-SVG-20010904/DTD/svg10.dtd">
<svg version="1.0" xmlns="http://www.w3.org/2000/svg"
 width="1336.000000pt" height="1336.000000pt" viewBox="0 0 1336.000000 1336.000000"
 preserveAspectRatio="xMidYMid meet">
<metadata>
Created by potrace 1.14, written by Peter Selinger 2001-2017
</metadata>
<g transform="translate(0.000000,1336.000000) scale(0.100000,-0.100000)"
fill="#000000" stroke="none">
<path d="M3778 13355 c-2 -2 -28 -6 -58 -9 -51 -5 -76 -9 -132 -21 -13 -2 -36
-7 -53 -10 -32 -6 -86 -22 -123 -36 -13 -5 -32 -9 -42 -9 -11 0 -20 -4 -20 -9
0 -5 -13 -11 -29 -14 -32 -7 -198 -84 -221 -103 -8 -7 -22 -14 -30 -16 -8 -2
-17 -6 -20 -9 -3 -3 -34 -25 -69 -49 -154 -104 -330 -265 -429 -395 -26 -33
-50 -61 -54 -63 -4 -2 -8 -8 -8 -14 0 -5 -11 -24 -24 -41 -41 -55 -128 -220
-151 -287 -1 -3 -4 -12 -8 -20 -26 -68 -57 -176 -63 -216 -3 -27 -8 -51 -9
-54 -27 -45 -26 -490 0 -610 4 -14 8 -36 11 -50 2 -14 7 -38 10 -55 9 -42 73
-237 83 -249 5 -6 11 -23 15 -38 3 -16 11 -28 16 -28 6 0 10 -8 10 -19 0 -10
9 -30 21 -45 11 -14 18 -26 14 -26 -8 0 76 -124 87 -128 4 -2 8 -8 8 -14 0
-21 236 -278 255 -278 3 0 16 -9 28 -20 12 -11 46 -37 77 -58 30 -20 57 -40
58 -44 2 -5 10 -8 18 -8 8 0 14 -4 14 -10 0 -5 5 -10 11 -10 6 0 24 -9 40 -21
16 -11 29 -17 29 -13 0 4 8 0 18 -8 15 -14 169 -84 202 -93 3 0 34 -11 70 -23
36 -11 76 -23 90 -25 14 -2 32 -7 40 -10 8 -3 31 -9 50 -12 19 -3 44 -8 55
-10 223 -38 549 -39 745 -1 19 4 49 9 65 11 17 2 31 4 33 6 1 1 7 3 12 4 6 1
11 3 13 5 1 1 11 3 22 5 83 15 253 79 355 135 30 16 66 36 80 43 28 14 82 49
90 57 3 4 25 20 50 38 100 70 241 209 331 327 67 88 162 248 174 295 1 3 11
26 23 52 17 39 34 88 48 141 1 4 2 8 4 10 1 1 3 9 5 17 2 8 8 38 15 65 6 28
14 61 16 75 2 14 6 34 9 45 2 11 7 61 11 110 17 216 2 419 -41 575 -9 30 -18
63 -20 72 -15 66 -111 274 -157 340 -10 14 -18 31 -18 36 0 6 -4 12 -8 14 -5
2 -24 26 -42 53 -48 70 -71 96 -195 220 -107 107 -192 185 -201 185 -5 0 -20
12 -49 38 -7 6 -18 12 -23 12 -6 0 -12 4 -14 8 -10 26 -286 169 -378 197 -3 1
-39 12 -80 24 -41 13 -83 25 -95 27 -11 2 -31 6 -45 9 -24 5 -49 10 -120 21
-37 6 -396 14 -402 9z"/>
<path d="M9269 13356 c-2 -2 -32 -7 -66 -10 -35 -4 -68 -8 -75 -11 -7 -2 -31
-7 -53 -10 -104 -15 -244 -61 -375 -123 -41 -20 -77 -36 -80 -37 -11 -2 -155
-90 -161 -98 -3 -5 -22 -18 -41 -30 -57 -36 -127 -95 -233 -202 -103 -103
-165 -171 -165 -180 0 -5 -57 -84 -82 -114 -7 -8 -41 -71 -75 -140 -86 -170
-139 -345 -160 -531 -8 -78 -10 -296 -1 -355 3 -27 9 -70 11 -95 7 -54 43
-217 56 -254 6 -14 8 -26 5 -26 -4 0 -2 -6 3 -12 5 -7 20 -42 33 -78 79 -218
254 -457 450 -616 19 -16 37 -32 40 -35 10 -12 189 -127 219 -140 17 -8 31
-17 31 -21 0 -5 5 -8 11 -8 5 0 31 -10 57 -21 26 -12 66 -30 88 -40 48 -20
247 -79 284 -84 14 -2 52 -8 84 -14 135 -24 377 -32 556 -18 96 8 126 12 225
34 39 8 81 17 93 19 42 8 206 65 219 76 7 6 13 8 13 4 0 -3 47 18 105 48 108
56 218 128 295 193 77 65 260 255 260 269 0 2 9 14 20 27 52 60 158 254 197
362 12 31 62 201 63 213 0 1 0 3 1 5 6 19 21 111 26 162 11 100 5 490 -7 490
-1 0 -3 9 -5 20 -1 11 -5 32 -9 48 -3 15 -8 39 -12 55 -16 81 -124 348 -156
387 -5 5 -27 39 -49 75 -23 36 -45 67 -50 68 -5 2 -9 8 -9 14 0 5 -6 15 -12
22 -7 7 -22 25 -33 41 -37 51 -296 305 -312 305 -3 0 -13 7 -22 15 -29 28
-110 85 -120 85 -6 0 -11 3 -11 8 0 6 -178 100 -272 144 -36 16 -197 67 -238
74 -8 2 -42 8 -75 13 -33 6 -73 14 -90 17 -32 6 -391 15 -396 10z"/>
<path d="M2200 4618 l0 -4618 1733 2 1732 3 0 4615 0 4615 -1732 1 -1733 1 0
-4619z"/>
<path d="M7689 9231 c-1 -3 -2 -2082 -3 -4618 l-1 -4613 1733 0 1732 0 0 4618
0 4619 -1730 0 c-951 0 -1730 -3 -1731 -6z"/>
</g>
</svg>
