<?xml version="1.0" encoding="UTF-8" standalone="no"?>
<svg
   xmlns:dc="http://purl.org/dc/elements/1.1/"
   xmlns:cc="http://creativecommons.org/ns#"
   xmlns:rdf="http://www.w3.org/1999/02/22-rdf-syntax-ns#"
   xmlns:svg="http://www.w3.org/2000/svg"
   xmlns="http://www.w3.org/2000/svg"
   xmlns:sodipodi="http://sodipodi.sourceforge.net/DTD/sodipodi-0.dtd"
   xmlns:inkscape="http://www.inkscape.org/namespaces/inkscape"
   width="194.45714mm"
   height="45.006702mm"
   viewBox="0 0 194.45714 45.006702"
   version="1.1"
   id="svg8"
   inkscape:version="1.0.1 (3bc2e813f5, 2020-09-07)"
   sodipodi:docname="imicros-logo-light-grey.svg">
  <defs
     id="defs2" />
  <sodipodi:namedview
     id="base"
     pagecolor="#ffffff"
     bordercolor="#666666"
     borderopacity="1.0"
     inkscape:pageopacity="0.0"
     inkscape:pageshadow="2"
     inkscape:zoom="0.94"
     inkscape:cx="368.08882"
     inkscape:cy="-75.206202"
     inkscape:document-units="mm"
     inkscape:current-layer="layer1"
     inkscape:document-rotation="0"
     showgrid="false"
     inkscape:window-width="1920"
     inkscape:window-height="1001"
     inkscape:window-x="3831"
     inkscape:window-y="1556"
     inkscape:window-maximized="1" />
  <metadata
     id="metadata5">
    <rdf:RDF>
      <cc:Work
         rdf:about="">
        <dc:format>image/svg+xml</dc:format>
        <dc:type
           rdf:resource="http://purl.org/dc/dcmitype/StillImage" />
        <dc:title></dc:title>
      </cc:Work>
    </rdf:RDF>
  </metadata>
  <g
     inkscape:label="Ebene 1"
     inkscape:groupmode="layer"
     id="layer1"
     transform="translate(-8.4431669,-66.735187)">
    <g
       id="g143">
      <path
         style="font-style:normal;font-variant:normal;font-weight:normal;font-stretch:normal;font-size:62.7459px;line-height:1.25;font-family:'Bauhaus 93';-inkscape-font-specification:'Bauhaus 93, ';fill:#ff6600;fill-opacity:1;stroke:none;stroke-width:1.56868"
         d="m 14.203044,66.735187 q 2.328461,0 4.013532,1.654433 1.715708,1.623795 1.715708,3.860343 0,2.389737 -1.623795,3.921619 -1.593158,1.531882 -4.105445,1.531882 -2.512287,0 -4.136082,-1.531882 -1.5931575,-1.531882 -1.5931575,-3.921619 0,-2.236548 1.6850705,-3.860343 1.715708,-1.654433 4.044169,-1.654433 z"
         id="path84" />
      <path
         style="font-style:normal;font-variant:normal;font-weight:normal;font-stretch:normal;font-size:62.7459px;line-height:1.25;font-family:'Bauhaus 93';-inkscape-font-specification:'Bauhaus 93, ';fill:#e6e6e6;fill-opacity:1;stroke:none;stroke-width:1.56868"
         d="m 19.901647,80.36894 v 30.54573 H 8.4431669 V 80.36894 Z"
         id="path56" />
      <path
         d="M 68.554228,110.91467 H 57.095748 V 94.431619 q 0,-1.899534 -0.398289,-2.634837 -0.39829,-0.735304 -1.43997,-0.735304 -1.930171,0 -1.930171,3.400779 V 110.91467 H 41.868838 V 94.431619 q 0,-1.899534 -0.428927,-2.634837 -0.398289,-0.735304 -1.439969,-0.735304 -1.899535,0 -1.899535,3.400779 V 110.91467 H 26.641928 V 92.103158 q 0,-5.147124 3.462054,-8.731729 3.462054,-3.615242 8.394715,-3.615242 5.085849,0 9.130018,4.28927 4.503734,-4.28927 9.007468,-4.28927 5.72924,0 9.191294,4.16672 2.726751,3.24759 2.726751,9.467032 z"
         style="font-style:normal;font-variant:normal;font-weight:normal;font-stretch:normal;font-size:62.7459px;line-height:1.25;font-family:'Bauhaus 93';-inkscape-font-specification:'Bauhaus 93, ';fill:#e6e6e6;fill-opacity:1;stroke:none;stroke-width:1.56868"
         id="path58" />
      <path
         style="font-style:normal;font-variant:normal;font-weight:normal;font-stretch:normal;font-size:62.7459px;line-height:1.25;font-family:'Bauhaus 93';-inkscape-font-specification:'Bauhaus 93, ';fill:#ff6600;fill-opacity:1;stroke:none;stroke-width:1.56868"
         d="m 81.023754,66.735187 q 2.328461,0 4.013531,1.654433 1.715708,1.623795 1.715708,3.860343 0,2.389737 -1.623795,3.921619 -1.593157,1.531882 -4.105444,1.531882 -2.512287,0 -4.136083,-1.531882 -1.593157,-1.531882 -1.593157,-3.921619 0,-2.236548 1.68507,-3.860343 1.715708,-1.654433 4.04417,-1.654433 z"
         id="path80" />
      <path
         style="font-style:normal;font-variant:normal;font-weight:normal;font-stretch:normal;font-size:62.7459px;line-height:1.25;font-family:'Bauhaus 93';-inkscape-font-specification:'Bauhaus 93, ';fill:#e6e6e6;fill-opacity:1;stroke:none;stroke-width:1.56868"
         d="m 86.722356,80.36894 v 30.54573 H 75.263876 V 80.36894 Z"
         id="path60" />
      <path
         d="m 112.21288,96.851993 11.36656,-0.428927 q -0.4902,6.617734 -4.93266,10.876364 -4.44246,4.25863 -10.81509,4.25863 -6.74028,0 -11.397201,-4.68756 -4.626285,-4.68756 -4.626285,-11.489114 0,-6.464543 4.68756,-11.06019 4.687556,-4.595647 11.244016,-4.595647 5.72924,0 10.11042,3.615242 4.38119,3.615243 5.4535,9.221932 l -11.61166,0.428927 q -1.50125,-1.960809 -3.79907,-1.960809 -1.96081,0 -3.21695,1.286781 -1.25615,1.286781 -1.25615,3.24759 0,1.991447 1.31742,3.339504 1.34806,1.348054 3.3395,1.348054 2.91058,0 4.13609,-3.400777 z"
         style="font-style:normal;font-variant:normal;font-weight:normal;font-stretch:normal;font-size:62.7459px;line-height:1.25;font-family:'Bauhaus 93';-inkscape-font-specification:'Bauhaus 93, ';fill:#e6e6e6;fill-opacity:1;stroke:none;stroke-width:1.56868"
         id="path62" />
      <path
         d="m 145.33216,80.062563 v 12.255059 q -1.19487,-0.674029 -2.17527,-0.674029 -3.12504,0 -3.12504,4.779473 V 110.91467 H 128.57337 V 94.217156 q 0,-6.617732 3.61524,-10.539351 3.61524,-3.952256 9.65086,-3.952256 1.34806,0 3.49269,0.337014 z"
         style="font-style:normal;font-variant:normal;font-weight:normal;font-stretch:normal;font-size:62.7459px;line-height:1.25;font-family:'Bauhaus 93';-inkscape-font-specification:'Bauhaus 93, ';fill:#e6e6e6;fill-opacity:1;stroke:none;stroke-width:1.56868"
         id="path64" />
      <path
         d="m 163.19391,79.725549 q 6.49518,0 11.12147,4.68756 4.65692,4.656922 4.65692,11.182741 0,6.61773 -4.7182,11.27465 -4.68756,4.65693 -11.33593,4.65693 -6.64836,0 -11.36656,-4.65693 -4.7182,-4.68756 -4.7182,-11.27465 0,-6.709645 4.7182,-11.274654 4.7182,-4.595647 11.6423,-4.595647 z m -0.30637,11.305292 q -1.83826,0 -3.12504,1.348056 -1.28678,1.317419 -1.28678,3.24759 0,1.899535 1.28678,3.247591 1.31742,1.348052 3.12504,1.348052 1.83826,0 3.12504,-1.348052 1.31742,-1.348056 1.31742,-3.247591 0,-1.930171 -1.28679,-3.24759 -1.28678,-1.348056 -3.15567,-1.348056 z"
         style="font-style:normal;font-variant:normal;font-weight:normal;font-stretch:normal;font-size:62.7459px;line-height:1.25;font-family:'Bauhaus 93';-inkscape-font-specification:'Bauhaus 93, ';fill:#e6e6e6;fill-opacity:1;stroke:none;stroke-width:1.56868"
         id="path66" />
      <path
         d="m 202.9003,80.797867 v 12.071232 q -2.42037,0 -3.3395,0.91913 -0.88849,0.888491 -1.13359,3.553967 -0.79658,8.854284 -6.86283,12.500164 -3.21696,1.89953 -9.13002,1.89953 H 180.8412 V 99.609381 h 0.52084 q 2.75739,0 3.92162,-1.133592 1.19487,-1.164231 1.37869,-4.04417 0.2451,-4.68756 0.85786,-6.587094 0.64339,-1.899534 2.57356,-3.76843 3.37014,-3.278228 9.34448,-3.278228 z"
         style="font-style:normal;font-variant:normal;font-weight:normal;font-stretch:normal;font-size:62.7459px;line-height:1.25;font-family:'Bauhaus 93';-inkscape-font-specification:'Bauhaus 93, ';fill:#e6e6e6;fill-opacity:1;stroke:none;stroke-width:1.56868"
         id="path68" />
    </g>
  </g>
</svg>
